<?xml version="1.0" encoding="UTF-8"?>
<svg width="615" height="384" xmlns="http://www.w3.org/2000/svg">
 <g>
  <title>Layer 1</title>
  <path fill="#000" d="m0,259l338,-229l113,-30l22,14l115,-13l27,32l0,6l-1,14l-4,15l-7,8l-9,0l-4,-3l-1,-3l-1,-1l-54,12l3,22l-26,102l-399,179l-22,-3l-87,-92l-3,-30z"/>
  <path fill="#ffffea" d="m348,35l99,-27l22,13l115,-15l24,26l-90,25l5,27l-76,39l-99,-88z"/>
  <path fill="#adad6d" d="m527,62l83,-23l-3,29l-10,4l-9,-10l-56,14l-5,-14z"/>
  <path fill="#adad6d" d="m527,91l-74,43l-21,98l69,-29l26,-112z"/>
  <path fill="#302b84" d="m433,134l1,4l1,11l0,15l-2,17l-2,9l-3,11l-3,10l-3,10l-3,9l-3,7l-2,5l0,2l-306,131l-14,-8l339,-233z"/>
  <path fill="#8c8cce" d="m432,125l-341,234l-86,-94l333,-222l1,0l2,2l4,3l5,4l6,5l7,6l7,6l8,7l8,7l8,7l8,6l7,7l7,7l6,5l5,6l5,4z"/>
  <path fill="#000" d="m482,26l12,17l56,-8l-16,-20l-20,-3l-32,14z"/>
  <path fill="#a00" d="m494,43l27,-16l22,4l-49,12z"/>
  <path fill="#ff7f7f" d="m488,27l26,-15l2,13l-21,11l-7,-9z"/>
  <path fill="#f00" d="m521,12l13,3l9,16l-21,-8l-1,-11z"/>
  <path fill="#c1c6ef" d="m338,43l94,82l-21,13l-92,-80l19,-15z"/>
  <path fill="#8c8cce" d="m433,134l2,4l2,10l2,12l-2,11l-2,8l-4,9l-4,12l-4,13l-3,11l-3,11l-2,6l-1,3l-9,3l14,-65l-2,-36l16,-12z"/>
  <path fill="#140f68" d="m4,276l3,13l93,92l-12,-14l-84,-91z"/>
  <path fill="#000" d="m365,70l-19,10l21,18l17,-11l-19,-17z"/>
  <path fill="#ffffea" d="m365,74l-11,9l12,10l13,-6l-14,-13z"/>
 </g>
</svg>